#!OML:ASF F:\VICON\USERDATA\INSTALL\rory3\rory3.ASF
:FULLY-SPECIFIED
:DEGREES
1336
root 0.925929 15.7129 2.89658 5.25291 -45.8431 12.6266
lowerback 0.206395 4.58697 5.66771
upperback 5.49587 5.97445 -1.22219
thorax 6.35104 3.27011 -4.08401
lowerneck 1.10893 -9.23008 -12.4202
upperneck 46.6954 -18.1729 8.51651
head 20.6396 -8.86118 3.46541
rclavicle -3.49861e-014 -1.59028e-015
rhumerus -20.9097 25.1638 -96.5208
rradius 21.068
rwrist 18.4806
rhand -25.9269 -54.5784
rfingers 7.12502
rthumb 0.616325 -84.5572
lclavicle -3.49861e-014 -1.59028e-015
lhumerus -45.7983 -82.5621 121.683
lradius 84.6687
lwrist 22.7659
lhand 4.04599 -20.2482
lfingers 7.12502
lthumb 29.4596 7.43562
rfemur -34.1191 1.9111 -4.95792
rtibia 76.476
rfoot -1.98248 -8.21731
rtoes -33.4584
lfemur -50.0387 -18.4963 -29.0647
ltibia 57.7252
lfoot -20.5596 0.548179
ltoes 18.4859
1337
root 0.927199 15.7146 2.89185 5.3063 -45.8199 12.5447
lowerback 0.267659 4.55894 5.70741
upperback 5.47809 5.93805 -1.19834
thorax 6.29423 3.25168 -4.08982
lowerneck 0.620414 -9.24048 -12.6726
upperneck 46.9416 -18.131 8.51764
head 21.0545 -8.89887 3.60961
rclavicle -2.3059e-014 -3.18055e-015
rhumerus -20.8523 25.0774 -96.497
rradius 20.918
rwrist 18.7225
rhand -25.9408 -54.3394
rfingers 7.12502
rthumb 0.602969 -84.3183
lclavicle -2.3059e-014 -3.18055e-015
lhumerus -45.5017 -82.3634 121.43
lradius 84.5647
lwrist 22.7355
lhand 4.12818 -20.3859
lfingers 7.12502
lthumb 29.5381 7.28407
rfemur -34.1438 1.93735 -4.85926
rtibia 76.4983
rfoot -1.75261 -8.25841
rtoes -35.1901
lfemur -50.0858 -18.4544 -28.9813
ltibia 57.7293
lfoot -20.5235 0.367878
ltoes 18.795
1338
root 0.927453 15.7158 2.89181 5.27262 -45.8348 12.5824
lowerback 0.275155 4.55614 5.67665
upperback 5.4881 5.93573 -1.2073
thorax 6.29776 3.24954 -4.08257
lowerneck 0.566603 -9.26236 -12.5628
upperneck 46.958 -18.1111 8.37391
head 21.0218 -8.88036 3.51553
rclavicle -2.06736e-014 -3.18055e-015
rhumerus -20.8333 25.0584 -96.473
rradius 20.8676
rwrist 18.8959
rhand -26.0727 -54.1481
rfingers 7.12502
rthumb 0.475577 -84.1273
lclavicle -2.06736e-014 -3.18055e-015
lhumerus -45.3912 -82.226 121.388
lradius 84.4463
lwrist 22.5705
lhand 4.16434 -20.5135
lfingers 7.12502
lthumb 29.5726 7.15036
rfemur -34.1589 1.92802 -4.88419
rtibia 76.5113
rfoot -1.69898 -8.2491
rtoes -35.1479
lfemur -50.0678 -18.507 -28.9332
ltibia 57.6987
lfoot -20.4956 0.396097
ltoes 17.6378
1339
root 0.927888 15.7154 2.89006 5.28923 -45.8686 12.5366
lowerback 0.580531 4.58093 5.52044
upperback 5.33146 5.9902 -1.15119
thorax 5.93644 3.25611 -3.96768
lowerneck 1.1079 -9.27298 -12.24
upperneck 46.8424 -18.1897 8.25155
head 20.6677 -8.86099 3.29969
rclavicle 8.90555e-014 -5.24792e-014
rhumerus -21.075 25.0662 -96.545
rradius 20.9005
rwrist 18.6982
rhand -26.0728 -54.0995
rfingers 7.12502
rthumb 0.475406 -84.0787
lclavicle 8.90555e-014 -5.24792e-014
lhumerus -47.1268 -82.0465 123.216
lradius 84.3553
lwrist 22.3947
lhand 4.17928 -20.541
lfingers 7.12502
lthumb 29.5868 7.12029
rfemur -34.198 1.93102 -4.82437
rtibia 76.521
rfoot -1.68345 -8.28123
rtoes -34.5481
lfemur -50.0391 -18.4897 -28.8594
ltibia 57.6642
lfoot -20.4672 0.497345
ltoes 16.5405
1340
root 0.928245 15.7141 2.8883 5.36904 -45.8807 12.4466
lowerback 1.37606 4.58189 5.05959
upperback 4.76514 6.04549 -0.94202
thorax 4.80924 3.2231 -3.59167
lowerneck 1.6195 -9.24937 -12.2008
upperneck 47.0866 -18.1854 8.00405
head 20.6514 -8.90452 3.20652
rclavicle -1.82882e-014 2.38542e-014
rhumerus -22.0393 24.8936 -96.7592
rradius 21.0056
rwrist 18.6207
rhand -25.9446 -54.1145
rfingers 7.12502
rthumb 0.599207 -84.0934
lclavicle -1.82882e-014 2.38542e-014
lhumerus -52.0216 -81.4438 128.211
lradius 84.3672
lwrist 22.3517
lhand 4.07669 -20.5757
lfingers 7.12502
lthumb 29.4889 7.10294
rfemur -34.2352 1.9566 -4.74575
rtibia 76.5125
rfoot -1.44744 -8.29167
rtoes -36.7829
lfemur -50.0677 -18.4499 -28.7848
ltibia 57.647
lfoot -20.463 0.525501
ltoes 16.5831
1341
root 0.927501 15.7174 2.89233 5.37265 -45.8969 12.4448
lowerback 1.34615 4.69821 5.15966
upperback 4.78673 6.20051 -1.01098
thorax 4.8859 3.30841 -3.7059
lowerneck 1.70417 -9.32854 -12.1041
upperneck 46.9913 -18.3749 8.1647
head 20.6145 -8.94939 3.24019
rclavicle -6.52014e-014 -1.27222e-014
rhumerus -21.861 24.2454 -96.6212
rradius 20.9976
rwrist 18.7886
rhand -25.7779 -54.3293
rfingers 7.12502
rthumb 0.760221 -84.3077
lclavicle -6.52014e-014 -1.27222e-014
lhumerus -52.9016 -81.7841 129.072
lradius 84.4447
lwrist 22.4356
lhand 3.47047 -20.5011
lfingers 7.12502
lthumb 28.91 7.27811
rfemur -34.1693 1.99856 -4.7797
rtibia 76.4528
rfoot -1.79679 -8.29003
rtoes -34.1961
lfemur -50.0404 -18.587 -28.753
ltibia 57.6252
lfoot -20.4947 0.687267
ltoes 16.7579
1342
root 0.926578 15.721 2.89716 5.32048 -45.9358 12.4678
lowerback 1.32856 4.70557 5.18264
upperback 4.83222 6.20853 -1.02813
thorax 4.94971 3.31596 -3.73182
lowerneck 1.57732 -9.36077 -11.9532
upperneck 47.0311 -18.3675 8.00505
head 20.6169 -8.92736 3.12793
rclavicle -8.74653e-015 -2.8625e-014
rhumerus -21.6724 24.2455 -96.5891
rradius 20.8541
rwrist 18.7013
rhand -25.7698 -54.4963
rfingers 7.12502
rthumb 0.76806 -84.4747
lclavicle -8.74653e-015 -2.8625e-014
lhumerus -52.3247 -81.7688 128.499
lradius 84.4253
lwrist 22.3498
lhand 3.54302 -20.4763
lfingers 7.12502
lthumb 28.9793 7.29102
rfemur -34.084 2.04334 -4.82875
rtibia 76.392
rfoot -1.56459 -8.40407
rtoes -32.5931
lfemur -49.9551 -18.7389 -28.7491
ltibia 57.6016
lfoot -20.5041 0.938707
ltoes 16.4589
1343
root 0.926594 15.7214 2.89733 5.30422 -45.9428 12.4527
lowerback 1.34658 4.67443 5.18738
upperback 4.86128 6.16625 -1.01686
thorax 4.96478 3.29556 -3.72514
lowerneck 1.44567 -9.3775 -11.8096
upperneck 47.0447 -18.3264 7.83678
head 20.5923 -8.89496 3.01821
rclavicle 5.32743e-014 -1.43125e-014
rhumerus -21.5693 24.4383 -96.5994
rradius 20.7221
rwrist 18.5698
rhand -25.8103 -54.5305
rfingers 7.12502
rthumb 0.728957 -84.509
lclavicle 5.32743e-014 -1.43125e-014
lhumerus -51.6111 -81.6826 127.778
lradius 84.4036
lwrist 22.2911
lhand 4.55177 -20.6549
lfingers 7.12502
lthumb 29.9423 6.94276
rfemur -34.0547 2.04853 -4.82676
rtibia 76.372
rfoot -1.91292 -8.22477
rtoes -33.3012
lfemur -49.9237 -18.7151 -28.7499
ltibia 57.5898
lfoot -20.4822 0.887709
ltoes 16.5414
1344
root 0.925604 15.7217 2.89543 5.23938 -45.928 12.5827
lowerback 1.27419 4.6496 5.09061
upperback 4.85209 6.13253 -1.0407
thorax 4.98368 3.27566 -3.69266
lowerneck 1.50163 -9.34582 -11.8727
upperneck 47.0461 -18.2937 7.87588
head 20.5905 -8.89362 3.05841
rclavicle -1.11319e-014 -1.90833e-014
rhumerus -21.6478 24.6409 -96.6632
rradius 20.7995
rwrist 18.4397
rhand -25.5216 -54.6977
rfingers 7.12502
rthumb 1.00783 -84.6751
lclavicle -1.11319e-014 -1.90833e-014
lhumerus -51.4325 -81.6278 127.554
lradius 84.4442
lwrist 22.2844
lhand 4.87942 -20.701
lfingers 7.12502
lthumb 30.255 6.83977
rfemur -34.0561 2.0089 -4.94843
rtibia 76.373
rfoot -1.99796 -8.10533
rtoes -33.4368
lfemur -49.9515 -18.6385 -28.885
ltibia 57.5711
lfoot -20.4881 0.661298
ltoes 17.6328
1345
root 0.924714 15.7204 2.89093 5.22912 -45.8899 12.7293
lowerback 1.16653 4.64291 4.96599
upperback 4.81421 6.12344 -1.07636
thorax 4.99312 3.26652 -3.6542
lowerneck 1.50383 -9.34423 -11.9552
upperneck 47.1646 -18.3219 7.89133
head 20.7069 -8.91821 3.07603
rclavicle -1.27222e-014 7.95139e-015
rhumerus -21.7318 24.8379 -96.7286
rradius 20.8605
rwrist 18.3112
rhand -25.4089 -54.7208
rfingers 7.12502
rthumb 1.11669 -84.6976
lclavicle -1.27222e-014 7.95139e-015
lhumerus -51.7916 -81.6865 127.858
lradius 84.5134
lwrist 22.3426
lhand 5.12565 -20.6381
lfingers 7.12502
lthumb 30.4898 6.8594
rfemur -34.1666 1.91212 -5.05615
rtibia 76.4016
rfoot -1.9446 -8.11894
rtoes -32.8694
lfemur -50.0423 -18.6026 -29.0396
ltibia 57.5511
lfoot -20.515 0.606057
ltoes 18.8265
1346
root 0.925587 15.7215 2.88721 5.32074 -45.8471 12.6986
lowerback 1.14469 4.64849 4.9744
upperback 4.7628 6.13097 -1.06718
thorax 4.95182 3.2687 -3.64964
lowerneck 1.5125 -9.3657 -11.951
upperneck 47.217 -18.3525 7.84987
head 20.7423 -8.93295 3.04963
rclavicle 1.01778e-013 -3.81667e-014
rhumerus -21.72 24.8861 -96.7369
rradius 20.7657
rwrist 18.3003
rhand -25.6377 -54.6231
rfingers 7.12502
rthumb 0.895703 -84.601
lclavicle 1.01778e-013 -3.81667e-014
lhumerus -52.3799 -81.6483 128.48
lradius 84.4857
lwrist 22.2932
lhand 5.3656 -20.748
lfingers 7.12502
lthumb 30.7186 6.70671
rfemur -34.2713 1.83096 -5.00482
rtibia 76.3926
rfoot -1.83997 -8.13506
rtoes -32.4762
lfemur -50.1178 -18.7386 -28.951
ltibia 57.5202
lfoot -20.4774 0.69433
ltoes 18.7541
1347
root 0.924794 15.7267 2.89396 5.33569 -45.8792 12.6639
lowerback 1.08837 4.67613 5.04325
upperback 4.75943 6.16422 -1.06062
thorax 4.99119 3.28866 -3.67395
lowerneck 1.61187 -9.3655 -11.9373
upperneck 47.1479 -18.3489 7.8617
head 20.6595 -8.93254 3.06007
rclavicle -1.09729e-013 2.06736e-014
rhumerus -21.6906 24.8517 -96.7175
rradius 20.7537
rwrist 18.354
rhand -25.6585 -54.6014
rfingers 7.12502
rthumb 0.875615 -84.5793
lclavicle -1.09729e-013 2.06736e-014
lhumerus -52.6353 -81.5596 128.817
lradius 84.3868
lwrist 22.1811
lhand 5.19912 -20.8893
lfingers 7.12502
lthumb 30.5599 6.59507
rfemur -34.2211 1.84555 -4.98957
rtibia 76.3417
rfoot -1.8158 -8.1327
rtoes -33.2024
lfemur -50.0857 -18.8665 -28.8337
ltibia 57.5005
lfoot -20.449 0.607175
ltoes 18.255
1348
root 0.921785 15.7353 2.91785 5.32656 -46.0885 12.5062
lowerback 0.952136 4.74463 5.28417
upperback 4.84741 6.24254 -1.05559
thorax 5.19878 3.3434 -3.77943
lowerneck 1.62246 -9.36145 -11.9469
upperneck 47.1532 -18.3443 7.86252
head 20.6616 -8.93304 3.06374
rclavicle -1.35174e-014 -2.38542e-014
rhumerus -21.6727 24.8524 -96.7068
rradius 20.7988
rwrist 18.4237
rhand -25.4228 -54.6341
rfingers 7.12502
rthumb 1.10325 -84.611
lclavicle -1.35174e-014 -2.38542e-014
lhumerus -52.35 -81.5358 128.566
lradius 84.3107
lwrist 22.2371
lhand 5.70045 -21.1689
lfingers 7.12502
lthumb 31.0378 6.22534
rfemur -34.0084 2.07132 -4.921
rtibia 76.2116
rfoot -1.60415 -8.16046
rtoes -34.6165
lfemur -49.8598 -18.8015 -28.7674
ltibia 57.4962
lfoot -20.5363 0.609693
ltoes 18.3162
